<?xml version="1.0" encoding="UTF-8"?>
<svg width="300pt" height="300pt" version="1.1" viewBox="0 0 700 500" xmlns="http://www.w3.org/2000/svg" xmlns:xlink="http://www.w3.org/1999/xlink">
 <g>
  <path d="m333.58 49.102c-0.019531-6.4688-2.5078-12.688-6.9531-17.387-10.496-11.023-31.539-29.711-53.703-30.418-29.473-1.0039-56.414 12.613-65.371 33.129-4.3633 9.9609-5.8945 24.523 4.0078 43.207-12.504-5.0664-26.758-3.1641-37.492 5.0117-19.453 15.148-24.168 47.867-15.207 65.902 1.0039 2.0039 2.0625 4.125 3.1836 6.3086-7.4805 0.35156-14.723 2.7305-20.953 6.8828-6.2305 4.1562-11.215 9.9258-14.414 16.695-7.3594 12.996-8.9023 28.488-4.2461 42.68-21.871 12.613-29.473 40.438-17.332 68.141 4.1875 9.7891 11.48 17.93 20.75 23.168-4.6602 1.2266-8.9102 3.668-12.32 7.0742-14.293 15.207-21.055 36-18.449 56.707 2.1797 20.984 12.379 39.906 26.586 49.34 4.957 3.1367 11.074 3.8516 16.621 1.9414-5.2617 8.8711-6.9297 19.418-4.6562 29.477 4.6562 18.215 24.758 33.363 61.422 46.273 13.793 49.574 51.754 56.293 67.672 56.824h5.8945c26.879-1.0039 51.52-15.09 57.531-33.719 3.3594-10.551 5.4219-59.301 6.543-122.26l0.003907 0.003907c0.050781-0.45313 0.050781-0.90625 0-1.3594 2.2383-124.96 1.1797-304.52 0.88281-353.62zm-19.453 473.23c-3.418 10.551-18.57 21.34-37.961 24.285 3.0078-18.629 4.9531-54.527 1.6523-65.961-4.0078-13.969-26.289-33.129-28.824-35.367h-0.003906c-2.6367-2.2305-6.582-1.9023-8.8125 0.73438-2.2305 2.6406-1.8984 6.5859 0.73828 8.8164 8.4297 7.1328 22.637 21.34 24.875 29.121 2.8281 9.9023 0.35547 48.574-2.418 63.309-40.379-1.4141-53.051-35.898-56.824-50.637-0.51172-2.0742-2.043-3.7383-4.0664-4.4219-33.895-11.789-53.051-24.523-56.531-38.609-4.125-16.211 12.438-34.309 27.059-50.281 4.5977-5.0703 8.9609-9.7852 12.672-14.441v-0.003906c2.1641-2.7031 1.7305-6.6484-0.97266-8.8125-2.7031-2.1641-6.6484-1.7305-8.8125 0.97266-1.5898 2.0039-3.2422 3.9492-4.9531 5.8945v0.35547c-15.797 17.684-34.957 32.363-41.852 27.766-11.492-7.2539-19.746-23.051-21.516-40.145-2.2266-17.008 3.2383-34.121 14.914-46.688 5.8945-5.8945 17.035-5.8945 34.367-5.6016h7.6641c2.7578 0.027343 5.207-1.7656 6.0234-4.3984 0.8125-2.6367-0.19531-5.4961-2.4883-7.0352-2.7305-1.4258-5.7617-2.1758-8.8398-2.1797-11.789-1.3555-33.422-3.8906-42.617-24.875-8.0156-18.273-6.3086-41.262 11.199-51.934h-0.003906c6.4531 9.8047 15.191 17.898 25.465 23.578 1.3555 1.3711 3.2695 2.0391 5.1875 1.8125 1.9141-0.23047 3.6172-1.3281 4.6094-2.9805 0.99609-1.6523 1.1719-3.6719 0.48047-5.4727-0.69531-1.8008-2.1797-3.1797-4.0273-3.7344-31.125-18.332-31.301-44.328-21.988-61.012 6.7773-12.203 20.102-21.16 32.48-14.973 17.684 30.238 42.5 65.312 59.773 72.977-1.3984 0.54297-2.5352 1.5977-3.1836 2.9492-1.5898 3.3008-15.621 32.422-17.684 43.738-0.57031 3.4023 1.7266 6.6211 5.1289 7.1914h1.0625-0.003906c2.9609-0.12891 5.4219-2.3203 5.8945-5.2461 4.3555-13.871 9.8594-27.359 16.449-40.32 1.0508-1.8242 1.0508-4.0703 0-5.8945 12.742 3.1836 26.176 2.1914 38.312-2.8281 3.1445-1.4492 4.5156-5.1719 3.0664-8.3125-1.4492-3.1406-5.168-4.5156-8.3125-3.0664-11.523 4.7031-24.434 4.7031-35.957 0-16.152-7.1914-47.156-52.109-64.844-87.949-6.543-13.145-2.3008-39.613 11.789-50.457 15.797-12.262 36.488 0 51.047 12.555h0.003906c2.5391 2.3438 6.5 2.1836 8.8438-0.35547 2.3438-2.5391 2.1836-6.4961-0.35547-8.8398-21.34-21.457-29.062-41.262-22.34-56.531 6.7188-15.266 29.473-26.41 53.465-25.582 18.508 0.58984 37.668 18.805 45.035 26.586v-0.003906c2.2422 2.3984 3.4844 5.5625 3.4766 8.8438 0 39.496 0.47266 86.004 0.53125 134.11-6.2578-6.1289-13.672-10.957-21.809-14.207-11.23-4.6797-23.211-7.3164-35.371-7.7812-3.4492 0-6.2461 2.7969-6.2461 6.25 0 3.4492 2.7969 6.2461 6.2461 6.2461 12.613 0 49.223 7.4258 55.824 31.359v0.003906c0.21484 0.75 0.57422 1.4492 1.0625 2.0625 0 33.188 0 66.668-0.35547 98.914-10.141 2.8281-38.551-4.7734-44.562-8.1328v-0.003906c-2.9766-1.2773-6.4336-0.066406-7.9688 2.7852-1.5312 2.8516-0.63281 6.4023 2.0742 8.1797 14.078 5.9961 29.102 9.4688 44.387 10.258 2.0898-0.007812 4.1797-0.16797 6.25-0.47266 0 28-0.53125 54.82-0.94141 79.285-12.203 2.2383-43.207 4.2461-58.004-3.5352h-0.53125c-14.797-5.8945-30.949-35.367-35.781-49.871h-0.003906c-1.3203-2.9258-4.6367-4.375-7.6797-3.3555-3.0391 1.0195-4.8164 4.1758-4.1094 7.3047 4.7734 14.383 22.164 48.691 42.617 57.355h0.003907c12.246 5.1914 25.496 7.5898 38.785 7.0156 8.3867 0.003907 16.758-0.60937 25.055-1.8281-1.4766 59.301-3.125 102.62-6.0156 111.53z"/>
  <path d="m474.7 120.07c-2.1953-1.1055-4.6172-1.6914-7.0742-1.707-4.8984-0.054688-9.5508 2.1367-12.633 5.9453-3.082 3.8086-4.2539 8.8164-3.1836 13.594 1.0742 4.7812 4.2734 8.8086 8.6836 10.938v55.352c-4.4688 2.2188-7.6562 6.3828-8.6289 11.277-0.97266 4.8945 0.38281 9.9648 3.668 13.723 3.2812 3.7578 8.1211 5.7812 13.102 5.4766 4.9805-0.30859 9.5391-2.9062 12.34-7.0352 2.7969-4.1328 3.5234-9.3281 1.9609-14.066-1.5625-4.7422-5.2383-8.4883-9.9453-10.145v-53.816c3.957-1.332 7.2188-4.1758 9.0781-7.9141 1.8555-3.7344 2.1523-8.0547 0.82813-12.012l31.184-27.293h-0.003906c3.2969 1.7305 7.1094 2.2109 10.73 1.3555l34.012 39.789c-1.1367 2.207-1.7422 4.6523-1.7695 7.1328 0 4.2695 1.6992 8.3633 4.7148 11.379 3.0195 3.0195 7.1133 4.7148 11.379 4.7148 4.2695 0 8.3633-1.6953 11.379-4.7148 3.0195-3.0156 4.7148-7.1094 4.7148-11.379 0-4.2656-1.6953-8.3594-4.7148-11.379-3.0156-3.0156-7.1094-4.7109-11.379-4.7109-1.6445 0.023437-3.2734 0.30078-4.832 0.82422l-33.305-39.082c2.9531-4.6758 3.3086-10.539 0.94531-15.535-2.3672-5-7.125-8.4414-12.613-9.1211-5.4883-0.67969-10.945 1.4922-14.457 5.7656-3.5156 4.2695-4.6016 10.039-2.8789 15.293z"/>
  <path d="m460.79 350.91-15.562-19.746c2.8789-4.2305 3.625-9.5586 2.0195-14.414-1.6055-4.8555-5.375-8.6914-10.207-10.371-4.832-1.6836-10.168-1.0234-14.441 1.7852-4.2773 2.8086-7 7.4492-7.3711 12.551-0.37109 5.1016 1.6523 10.086 5.4766 13.484 3.8203 3.3984 9.0078 4.8242 14.031 3.8594l19.984 25.348h39.258v22.754c-4.6016 1.9375-8.043 5.9023-9.3125 10.727-1.2734 4.8281-0.23438 9.9727 2.8125 13.926s7.7539 6.2695 12.746 6.2695c4.9922 0 9.7031-2.3164 12.75-6.2695 3.043-3.9531 4.0859-9.0977 2.8125-13.926-1.2734-4.8242-4.7148-8.7891-9.3125-10.727v-22.754h24.402l53.406 38.848-18.035 43.441h-60.246c-1.6562-4.707-5.4023-8.3789-10.141-9.9414s-9.9375-0.83594-14.066 1.9609c-4.1328 2.8008-6.7305 7.3594-7.0352 12.34-0.30469 4.9805 1.7148 9.8203 5.4766 13.102 3.7578 3.2852 8.8242 4.6367 13.719 3.668 4.8945-0.97266 9.0625-4.1602 11.281-8.6289h69.441l24.934-60.305-64.844-47.156z"/>
  <path d="m531.82 184.62c0.035156-0.60938 0.035156-1.2188 0-1.8281 0.035156-4.9414-2.1758-9.6289-6.0117-12.746-3.832-3.1133-8.875-4.3203-13.703-3.2734s-8.918 4.2305-11.121 8.6523c-2.1992 4.4219-2.2734 9.6055-0.19531 14.09 2.0742 4.4805 6.0781 7.7773 10.875 8.957 4.7969 1.1797 9.8711 0.11719 13.789-2.8906l67.199 31.477v21.871l-50.93-0.35547-28.531 29.77c-1.5039-0.48438-3.0742-0.74219-4.6562-0.76562-4.2461 0.09375-8.2852 1.8633-11.23 4.9219-2.9492 3.0547-4.5703 7.1562-4.5078 11.402s1.8008 8.2969 4.8359 11.27c3.0352 2.9688 7.125 4.6172 11.371 4.5898 4.2461-0.03125 8.3086-1.7422 11.305-4.7539 2.9922-3.0156 4.6719-7.0898 4.6719-11.336-0.015625-2.5469-0.64062-5.0547-1.8281-7.3086l24.168-25.289 45.625 0.29297 0.003906 45.156-16.387 17.684h-0.003906c-4.5898-2.2539-9.9688-2.2422-14.551 0.027343-4.582 2.2734-7.8438 6.5469-8.832 11.562-0.98438 5.0195 0.41797 10.211 3.8008 14.047 3.3789 3.8359 8.3516 5.8828 13.457 5.5352 5.1016-0.34766 9.75-3.0508 12.582-7.3086 2.8281-4.2617 3.5156-9.5938 1.8555-14.434l20.574-21.93v-92.664z"/>
  <path d="m530.23 479.71c-3.8945 0.003906-7.6562 1.4258-10.586 3.9922-2.9258 2.5703-4.8242 6.1133-5.3398 9.9766-0.51172 3.8594 0.39062 7.7773 2.5469 11.023l-30.062 41.262h-44.332v-56.707c4.6016-1.9375 8.043-5.8984 9.3164-10.727 1.2695-4.8281 0.23047-9.9688-2.8164-13.926-3.0469-3.9531-7.7539-6.2695-12.746-6.2695-4.9922 0-9.6992 2.3164-12.746 6.2695-3.0469 3.957-4.0859 9.0977-2.8164 13.926 1.2734 4.8281 4.7148 8.7891 9.3125 10.727v56.707h-16.977l-43.797-46.273 0.82422-87.418h31.184c1.9375 4.6016 5.9023 8.0391 10.727 9.3125 4.8281 1.2734 9.9727 0.23438 13.926-2.8125s6.2695-7.7578 6.2695-12.746c0-4.9922-2.3164-9.7031-6.2695-12.75s-9.0977-4.0859-13.926-2.8125c-4.8242 1.2734-8.7891 4.7109-10.727 9.3125h-31.004l0.70703-77.281c4.4727-2.2031 7.6719-6.3555 8.6602-11.242 0.98828-4.8867-0.34375-9.957-3.6094-13.727-3.2617-3.7695-8.0898-5.8125-13.07-5.5352-4.9766 0.28125-9.543 2.8555-12.363 6.9688-2.8203 4.1094-3.5781 9.2969-2.043 14.043 1.5312 4.7461 5.1758 8.5117 9.8672 10.199l-1.7109 181.44 50.988 53.879h85.535l34.129-46.805h0.003906c4.4648 0.86328 9.0898-0.20312 12.73-2.9336 3.6367-2.7344 5.9453-6.8828 6.3555-11.414s-1.1172-9.0273-4.2031-12.371c-3.0859-3.3398-7.4453-5.2227-11.996-5.1719z"/>
  <path d="m356.69 48.691v218.11h61.836c1.6562 4.707 5.4023 8.3789 10.141 9.9414s9.9336 0.83984 14.066-1.9609c4.1289-2.8008 6.7305-7.3555 7.0352-12.336 0.30469-4.9844-1.7188-9.8242-5.4766-13.105-3.7578-3.2852-8.8242-4.6367-13.719-3.6641-4.8945 0.96875-9.0625 4.1562-11.281 8.6289h-50.047v-76.633h37.551c2.25 4.4453 6.4336 7.5938 11.328 8.5312s9.9453-0.44531 13.68-3.7422c3.7344-3.3008 5.7305-8.1406 5.4062-13.113-0.32813-4.9727-2.9375-9.5117-7.0703-12.297s-9.3203-3.4961-14.051-1.9297c-4.7266 1.5664-8.4648 5.2344-10.121 9.9336h-36.723v-115.65c3.1289-1.0977 5.8398-3.1367 7.7617-5.8398 1.9219-2.7031 2.957-5.9336 2.9688-9.25v-0.76562l53.051-18.57 25.879 37.195c-0.035156 0.60938-0.035156 1.2188 0 1.8281 0.035156 2.0234 0.45703 4.0234 1.2383 5.8945l-29.473 29.473h-0.003906c-2.2695-1.1953-4.8008-1.8203-7.3672-1.8281-4.2695 0-8.3594 1.6953-11.379 4.7148s-4.7148 7.1133-4.7148 11.379c0 4.2695 1.6953 8.3633 4.7148 11.379 3.0195 3.0195 7.1094 4.7148 11.379 4.7148s8.3633-1.6953 11.379-4.7148c3.0195-3.0156 4.7148-7.1094 4.7148-11.379-0.019531-1.457-0.23828-2.9062-0.64844-4.3008l32.773-30.18v-0.003907c5.332 1.3477 10.984-0.12109 14.984-3.8945s5.7969-9.332 4.7617-14.73c-1.0312-5.4023-4.7539-9.9023-9.8633-11.934-5.1133-2.0312-10.906-1.3086-15.363 1.9102l-28.18-40.496-63.484 22.223c-3.4805-2.9922-8.0781-4.3516-12.625-3.7305-4.5469 0.62109-8.6133 3.1602-11.164 6.9805-2.5469 3.8164-3.3398 8.543-2.1719 12.98 1.1641 4.4414 4.1797 8.168 8.2773 10.238z"/>
 </g>
</svg>
